<svg data-v-423bf9ae="" xmlns="http://www.w3.org/2000/svg" viewBox="0 0 686.410440610035 60" class="font"><!----><!----><!----><g data-v-423bf9ae="" id="acd81236-12f6-43b1-8561-6e755941489d" fill="black" transform="matrix(5.240174770355225,0,0,5.240174770355225,1.0479981899261475,-12.052400588989258)"><path d="M8.32 13.55L7.55 11.65L3.40 11.65L2.63 13.55L-0.20 13.55L4.13 3.75L6.86 3.75L11.20 13.55L8.32 13.55ZM4.21 9.60L6.73 9.60L5.47 6.47L4.21 9.60ZM11.86 13.55L11.86 3.16L14.52 3.16L14.52 13.55L11.86 13.55ZM24.00 9.77Q24.00 9.80 23.95 10.43L23.95 10.43L18.44 10.43Q18.61 11.02 19.09 11.33Q19.57 11.65 20.30 11.65L20.30 11.65Q20.85 11.65 21.24 11.49Q21.64 11.34 22.05 10.99L22.05 10.99L23.45 12.45Q22.34 13.68 20.22 13.68L20.22 13.68Q18.89 13.68 17.88 13.17Q16.87 12.67 16.32 11.77Q15.76 10.88 15.76 9.74L15.76 9.74Q15.76 8.62 16.30 7.73Q16.84 6.85 17.79 6.34Q18.75 5.84 19.94 5.84L19.94 5.84Q21.07 5.84 21.99 6.31Q22.92 6.78 23.46 7.66Q24.00 8.55 24.00 9.77L24.00 9.77ZM19.95 7.73Q19.33 7.73 18.92 8.08Q18.51 8.43 18.40 9.03L18.40 9.03L21.50 9.03Q21.39 8.43 20.98 8.08Q20.57 7.73 19.95 7.73L19.95 7.73ZM32.87 13.55L29.83 13.55L28.48 11.56L27.02 13.55L24.14 13.55L27.02 9.76L24.22 5.96L27.22 5.96L28.56 7.88L29.96 5.96L32.77 5.96L29.97 9.66L32.87 13.55ZM33.57 7.84L33.40 3.75L35.64 3.75L35.46 7.84L33.57 7.84ZM39.83 13.68Q38.88 13.68 37.95 13.46Q37.03 13.24 36.47 12.89L36.47 12.89L37.27 11.07Q37.79 11.40 38.50 11.58Q39.21 11.77 39.91 11.77L39.91 11.77Q40.56 11.77 40.83 11.64Q41.10 11.51 41.10 11.26L41.10 11.26Q41.10 11.00 40.77 10.90Q40.45 10.79 39.73 10.70L39.73 10.70Q38.82 10.58 38.18 10.40Q37.55 10.22 37.09 9.73Q36.62 9.24 36.62 8.36L36.62 8.36Q36.62 7.63 37.06 7.06Q37.49 6.50 38.32 6.17Q39.16 5.84 40.32 5.84L40.32 5.84Q41.15 5.84 41.96 6.01Q42.77 6.17 43.32 6.48L43.32 6.48L42.52 8.29Q41.51 7.73 40.33 7.73L40.33 7.73Q39.70 7.73 39.41 7.87Q39.12 8.02 39.12 8.26L39.12 8.26Q39.12 8.53 39.44 8.63Q39.76 8.74 40.50 8.85L40.50 8.85Q41.44 8.99 42.06 9.17Q42.67 9.35 43.13 9.83Q43.58 10.32 43.58 11.19L43.58 11.19Q43.58 11.90 43.15 12.47Q42.71 13.03 41.87 13.36Q41.02 13.68 39.83 13.68L39.83 13.68ZM55.48 3.75L58.25 3.75L58.25 13.55L55.48 13.55L55.48 9.73L51.70 9.73L51.70 13.55L48.93 13.55L48.93 3.75L51.70 3.75L51.70 7.43L55.48 7.43L55.48 3.75ZM63.32 5.84Q65.21 5.84 66.21 6.70Q67.20 7.56 67.20 9.34L67.20 9.34L67.20 13.55L64.72 13.55L64.72 12.57Q64.15 13.68 62.48 13.68L62.48 13.68Q61.60 13.68 60.96 13.37Q60.31 13.06 59.98 12.54Q59.65 12.01 59.65 11.34L59.65 11.34Q59.65 10.26 60.48 9.67Q61.31 9.07 63.03 9.07L63.03 9.07L64.54 9.07Q64.47 7.87 62.93 7.87L62.93 7.87Q62.38 7.87 61.82 8.04Q61.26 8.22 60.87 8.53L60.87 8.53L59.98 6.72Q60.61 6.30 61.51 6.07Q62.41 5.84 63.32 5.84L63.32 5.84ZM63.22 12.00Q63.69 12.00 64.04 11.77Q64.39 11.55 64.54 11.12L64.54 11.12L64.54 10.46L63.39 10.46Q62.23 10.46 62.23 11.23L62.23 11.23Q62.23 11.58 62.50 11.79Q62.76 12.00 63.22 12.00L63.22 12.00ZM68.88 13.55L68.88 5.96L71.54 5.96L71.54 13.55L68.88 13.55ZM70.21 5.12Q69.48 5.12 69.03 4.72Q68.59 4.31 68.59 3.71L68.59 3.71Q68.59 3.11 69.03 2.70Q69.48 2.30 70.21 2.30L70.21 2.30Q70.94 2.30 71.39 2.68Q71.83 3.07 71.83 3.67L71.83 3.67Q71.83 4.30 71.39 4.71Q70.94 5.12 70.21 5.12L70.21 5.12ZM75.80 6.87Q76.20 6.36 76.85 6.10Q77.50 5.84 78.34 5.84L78.34 5.84L78.34 8.23Q77.98 8.19 77.74 8.19L77.74 8.19Q76.89 8.19 76.41 8.65Q75.92 9.11 75.92 10.07L75.92 10.07L75.92 13.55L73.26 13.55L73.26 5.96L75.80 5.96L75.80 6.87ZM87.11 13.75Q85.92 13.75 84.80 13.45Q83.68 13.16 82.98 12.67L82.98 12.67L83.89 10.63Q84.55 11.06 85.41 11.33Q86.28 11.59 87.12 11.59L87.12 11.59Q88.72 11.59 88.72 10.79L88.72 10.79Q88.72 10.37 88.26 10.17Q87.81 9.97 86.80 9.74L86.80 9.74Q85.69 9.51 84.95 9.23Q84.21 8.96 83.68 8.36Q83.15 7.76 83.15 6.73L83.15 6.73Q83.15 5.84 83.64 5.12Q84.13 4.40 85.10 3.98Q86.07 3.56 87.49 3.56L87.49 3.56Q88.45 3.56 89.39 3.77Q90.33 3.99 91.04 4.41L91.04 4.41L90.19 6.47Q88.79 5.71 87.47 5.71L87.47 5.71Q86.65 5.71 86.27 5.96Q85.89 6.20 85.89 6.59L85.89 6.59Q85.89 6.99 86.34 7.18Q86.79 7.38 87.78 7.59L87.78 7.59Q88.90 7.83 89.63 8.10Q90.37 8.37 90.91 8.97Q91.45 9.56 91.45 10.58L91.45 10.58Q91.45 11.47 90.96 12.18Q90.47 12.89 89.49 13.32Q88.51 13.75 87.11 13.75L87.11 13.75ZM97.17 11.38L97.83 13.24Q97.50 13.45 97.01 13.57Q96.53 13.68 95.98 13.68L95.98 13.68Q94.50 13.68 93.70 12.95Q92.90 12.22 92.90 10.78L92.90 10.78L92.90 8.23L91.80 8.23L91.80 6.24L92.90 6.24L92.90 4.27L95.56 4.27L95.56 6.24L97.30 6.24L97.30 8.23L95.56 8.23L95.56 10.75Q95.56 11.16 95.78 11.39Q96.00 11.62 96.36 11.62L96.36 11.62Q96.82 11.62 97.17 11.38L97.17 11.38ZM104.17 5.96L106.83 5.96L106.83 13.55L104.30 13.55L104.30 12.74Q103.88 13.20 103.29 13.44Q102.70 13.68 102.05 13.68L102.05 13.68Q100.58 13.68 99.70 12.81Q98.83 11.94 98.83 10.21L98.83 10.21L98.83 5.96L101.49 5.96L101.49 9.77Q101.49 10.63 101.81 11.02Q102.13 11.41 102.75 11.41L102.75 11.41Q103.38 11.41 103.77 10.97Q104.17 10.53 104.17 9.62L104.17 9.62L104.17 5.96ZM113.95 3.16L116.61 3.16L116.61 13.55L114.07 13.55L114.07 12.80Q113.33 13.68 111.85 13.68L111.85 13.68Q110.81 13.68 109.96 13.20Q109.10 12.71 108.60 11.82Q108.11 10.92 108.11 9.74L108.11 9.74Q108.11 8.57 108.60 7.68Q109.10 6.79 109.96 6.31Q110.81 5.84 111.85 5.84L111.85 5.84Q113.20 5.84 113.95 6.62L113.95 6.62L113.95 3.16ZM112.41 11.56Q113.09 11.56 113.54 11.08Q113.99 10.60 113.99 9.74L113.99 9.74Q113.99 8.90 113.55 8.43Q113.11 7.95 112.41 7.95L112.41 7.95Q111.71 7.95 111.26 8.43Q110.81 8.90 110.81 9.74L110.81 9.74Q110.81 10.60 111.26 11.08Q111.71 11.56 112.41 11.56L112.41 11.56ZM118.31 13.55L118.31 5.96L120.97 5.96L120.97 13.55L118.31 13.55ZM119.64 5.12Q118.92 5.12 118.47 4.72Q118.02 4.31 118.02 3.71L118.02 3.71Q118.02 3.11 118.47 2.70Q118.92 2.30 119.64 2.30L119.64 2.30Q120.37 2.30 120.82 2.68Q121.27 3.07 121.27 3.67L121.27 3.67Q121.27 4.30 120.82 4.71Q120.37 5.12 119.64 5.12L119.64 5.12ZM126.50 13.68Q125.29 13.68 124.31 13.17Q123.33 12.67 122.77 11.77Q122.22 10.88 122.22 9.74L122.22 9.74Q122.22 8.62 122.77 7.73Q123.33 6.83 124.30 6.33Q125.27 5.84 126.50 5.84L126.50 5.84Q127.74 5.84 128.72 6.33Q129.70 6.83 130.24 7.72Q130.79 8.61 130.79 9.74L130.79 9.74Q130.79 10.88 130.24 11.77Q129.70 12.67 128.72 13.17Q127.74 13.68 126.50 13.68L126.50 13.68ZM126.50 11.56Q127.20 11.56 127.65 11.08Q128.10 10.60 128.10 9.74L128.10 9.74Q128.10 8.90 127.65 8.43Q127.20 7.95 126.50 7.95L126.50 7.95Q125.80 7.95 125.36 8.43Q124.91 8.90 124.91 9.74L124.91 9.74Q124.91 10.60 125.36 11.08Q125.80 11.56 126.50 11.56L126.50 11.56Z"></path></g><!----><!----></svg>